<svg xmlns="http://www.w3.org/2000/svg" viewBox="0 0 24 24" fill="none">
  <rect width="24" height="24" rx="4" fill="#3b82f6"/>
  <path d="M18.92 7.01C18.72 6.42 18.16 6 17.5 6h-11c-.66 0-1.21.42-1.42 1.01L3 13v8c0 .55.45 1 1 1h1c.55 0 1-.45 1-1v-1h12v1c0 .55.45 1 1 1h1c.55 0 1-.45 1-1v-8l-2.08-5.99zM6.5 17c-.83 0-1.5-.67-1.5-1.5S5.67 14 6.5 14s1.5.67 1.5 1.5S7.33 17 6.5 17zm11 0c-.83 0-1.5-.67-1.5-1.5s.67-1.5 1.5-1.5 1.5.67 1.5 1.5-.67 1.5-1.5 1.5zM5 12l1.5-4.5h11L19 12H5z" fill="white"/>
</svg>
